<?xml version="1.0" encoding="UTF-8" standalone="no"?>
<svg
   version="1.1"
   viewBox="0 0 16 16"
   xml:space="preserve"
   id="svg25"
   sodipodi:docname="play-parameters-opt-16i.svg"
   inkscape:version="1.2 (dc2aedaf03, 2022-05-15)"
   width="16"
   height="16"
   xmlns:inkscape="http://www.inkscape.org/namespaces/inkscape"
   xmlns:sodipodi="http://sodipodi.sourceforge.net/DTD/sodipodi-0.dtd"
   xmlns="http://www.w3.org/2000/svg"
   xmlns:svg="http://www.w3.org/2000/svg"><defs
     id="defs29" /><sodipodi:namedview
     id="namedview27"
     pagecolor="#505050"
     bordercolor="#eeeeee"
     borderopacity="1"
     inkscape:showpageshadow="0"
     inkscape:pageopacity="0"
     inkscape:pagecheckerboard="0"
     inkscape:deskcolor="#505050"
     showgrid="false"
     inkscape:zoom="30.958333"
     inkscape:cx="18.411844"
     inkscape:cy="14.034993"
     inkscape:window-width="1861"
     inkscape:window-height="1492"
     inkscape:window-x="688"
     inkscape:window-y="488"
     inkscape:window-maximized="0"
     inkscape:current-layer="svg25" /><g
     id="play"
     transform="matrix(0.8362341,0,0,0.99084132,-5.963401,-3.8112453)"><g
       id="_Path_"
       data-name="&lt;Path&gt;"><path
         d="M 8.5,19.75 A 0.75,0.75 0 0 1 8.21,19.69 0.74,0.74 0 0 1 7.75,19 V 5 A 0.75,0.75 0 0 1 9,4.47 l 7,7 a 0.75,0.75 0 0 1 0,1.06 l -7,7 A 0.77,0.77 0 0 1 8.5,19.75 Z M 9.25,6.81 V 17.19 L 14.44,12 Z"
         id="path2" /></g></g><g
     id="sliders-h"
     transform="matrix(0.48538679,0,0,0.66908246,5.8119129,0.08374696)"
     stroke="#ffffff"
     stroke-width="0.40817"><path
       d="m 19,8.25 h -7 a 0.75,0.75 0 0 1 0,-1.5 h 7 a 0.75,0.75 0 0 1 0,1.5 z"
       id="path6" /><path
       d="M 10,8.25 H 5 a 0.75,0.75 0 0 1 0,-1.5 h 5 a 0.75,0.75 0 0 1 0,1.5 z"
       id="path8" /><path
       d="M 10,9.75 A 0.76,0.76 0 0 1 9.25,9 V 6 a 0.75,0.75 0 0 1 1.5,0 V 9 A 0.76,0.76 0 0 1 10,9.75 Z"
       id="path10" /><path
       d="m 19,17.25 h -7 a 0.75,0.75 0 0 1 0,-1.5 h 7 a 0.75,0.75 0 0 1 0,1.5 z"
       id="path12" /><path
       d="M 10,17.25 H 5 a 0.75,0.75 0 0 1 0,-1.5 h 5 a 0.75,0.75 0 0 1 0,1.5 z"
       id="path14" /><path
       d="M 10,18.75 A 0.76,0.76 0 0 1 9.25,18 v -3 a 0.75,0.75 0 0 1 1.5,0 v 3 A 0.76,0.76 0 0 1 10,18.75 Z"
       id="path16" /><path
       d="m 19,12.75 h -3 a 0.75,0.75 0 0 1 0,-1.5 h 3 a 0.75,0.75 0 0 1 0,1.5 z"
       id="path18" /><path
       d="M 14,12.75 H 5 a 0.75,0.75 0 0 1 0,-1.5 h 9 a 0.75,0.75 0 0 1 0,1.5 z"
       id="path20" /><path
       d="M 14,14.25 A 0.76,0.76 0 0 1 13.25,13.5 v -3 a 0.75,0.75 0 0 1 1.5,0 v 3 A 0.76,0.76 0 0 1 14,14.25 Z"
       id="path22" /></g></svg>
