<?xml version="1.0" encoding="UTF-8"?><svg id="Calque_2" xmlns="http://www.w3.org/2000/svg" xmlns:xlink="http://www.w3.org/1999/xlink" viewBox="0 0 117.19 73.77"><defs><style>.cls-1{fill:url(#Dégradé_sans_nom_6);}</style><linearGradient id="Dégradé_sans_nom_6" x1="83.92" y1="36.89" x2="14.84" y2="36.89" gradientUnits="userSpaceOnUse"><stop offset="0" stop-color="#131944"/><stop offset="1" stop-color="#2c5d85"/></linearGradient></defs><g id="Calque_1-2"><path class="cls-1" d="M9.18,25.07c3.33,0,6.24-1.78,7.85-4.43,1.17-1.94,3.46-2.92,5.72-2.92H57.53v20.88h-7.32c-2.23,0-4.49-.95-5.67-2.84-1.62-2.59-4.49-4.32-7.76-4.32-5.06,0-9.18,4.12-9.18,9.18s4.12,9.17,9.18,9.17c3,0,5.64-1.45,7.31-3.69,1.3-1.74,3.16-2.98,5.33-2.98h8.12v16.17H24.35c-2.22,0-4.1-1.28-5.39-3.09-1.66-2.32-4.36-3.83-7.42-3.83-5.06,0-9.18,4.12-9.18,9.18s4.12,9.18,9.18,9.18c3.06,0,5.76-1.51,7.42-3.83,1.29-1.8,3.17-3.09,5.39-3.09H57.53v9.95h16.41v-26.62h8.1c1.41,1.68,2.81,3.55,4.22,5.63s2.83,4.26,4.28,6.57c1.44,2.32,2.85,4.71,4.22,7.16,1.37,2.46,2.72,4.88,4.07,7.26h18.35c-1.26-2.66-2.63-5.38-4.11-8.15-1.47-2.77-3-5.44-4.58-8-1.57-2.56-3.17-5.01-4.79-7.36-1.61-2.35-3.15-4.43-4.63-6.26,4.42-1.83,7.81-4.33,10.16-7.53,2.35-3.19,3.52-7.34,3.52-12.47,0-8.21-2.91-14.26-8.74-18.15-5.82-3.9-14.2-5.84-25.15-5.84-3.01,0-6.44,.15-10.26,.42-3.83,.28-7.53,.77-11.1,1.47V13.2H21.68c-2.14,0-3.98-1.2-5.28-2.89-1.67-2.17-4.27-3.58-7.22-3.58C4.12,6.73,0,10.84,0,15.9s4.12,9.17,9.18,9.17Zm27.6,20.2c-2.57,0-4.66-2.09-4.66-4.65s2.09-4.66,4.66-4.66,4.65,2.09,4.65,4.66-2.09,4.65-4.65,4.65Zm-25.23,20.94c-2.57,0-4.66-2.09-4.66-4.66s2.09-4.66,4.66-4.66,4.65,2.09,4.65,4.66-2.09,4.66-4.65,4.66ZM73.94,14.31c.84-.07,1.74-.14,2.68-.21,.95-.07,2.01-.11,3.21-.11,5.26,0,9.25,.76,11.94,2.26,2.7,1.51,4.06,4.06,4.06,7.63s-1.33,6.36-4,7.9c-2.67,1.54-7.09,2.32-13.27,2.32h-4.63V14.31ZM9.18,11.25c2.57,0,4.65,2.09,4.65,4.65s-2.09,4.65-4.65,4.65-4.66-2.09-4.66-4.65,2.09-4.65,4.66-4.65Z"/></g></svg>