<?xml version="1.0" encoding="UTF-8"?><!--
  - This file is part of RootDB.
  -
  - This program is free software: you can redistribute it and/or modify
  - it under the terms of the GNU Affero General Public License as published
  - by the Free Software Foundation, either version 3 of the License, or
  - (at your option) any later version.
  -
  - This program is distributed in the hope that it will be useful,
  - but WITHOUT ANY WARRANTY; without even the implied warranty of
  - MERCHANTABILITY or FITNESS FOR A PARTICULAR PURPOSE.  See the
  - GNU Affero General Public License for more details.
  -
  - You should have received a copy of the GNU Affero General Public License
  - along with this program.  If not, see <https://www.gnu.org/licenses/>.
  -
  - AUTHORS
  - PORQUET Sébastien <sebastien.porquet@ijaz.fr>
  - ROBIN Brice <brice@robri.net>
  -->

<svg id="Calque_2" xmlns="http://www.w3.org/2000/svg" viewBox="0 0 115.06 72.43"><defs><style>.cls-1{fill:#fff;}</style></defs><g id="Calque_1-2"><path class="cls-1" d="M106.54,56.57c-1.54-2.51-3.11-4.92-4.7-7.23-1.58-2.31-3.09-4.35-4.55-6.14,4.34-1.79,7.67-4.25,9.97-7.39,2.31-3.13,3.46-7.21,3.46-12.24,0-8.06-2.86-14-8.58-17.82-5.72-3.83-13.95-5.74-24.69-5.74-2.96,0-6.32,.15-10.07,.42-3.76,.27-7.39,.76-10.9,1.44V12.96H21.28c-2.1,0-3.91-1.18-5.18-2.84-1.64-2.13-4.2-3.52-7.09-3.52C4.04,6.6,0,10.65,0,15.61s4.04,9.01,9.01,9.01c3.27,0,6.13-1.75,7.71-4.35,1.15-1.9,3.39-2.86,5.62-2.86H56.48v20.5h-7.19c-2.19,0-4.41-.93-5.57-2.79-1.59-2.54-4.41-4.24-7.62-4.24-4.97,0-9.01,4.04-9.01,9.01s4.04,9.01,9.01,9.01c2.94,0,5.54-1.43,7.18-3.62,1.27-1.71,3.1-2.92,5.23-2.92h7.97v15.88H23.91c-2.18,0-4.02-1.26-5.29-3.03-1.63-2.27-4.28-3.76-7.28-3.76-4.97,0-9.01,4.04-9.01,9.01s4.04,9.01,9.01,9.01c3.01,0,5.66-1.49,7.28-3.76,1.27-1.77,3.12-3.03,5.29-3.03H56.48v9.77h16.12v-26.14h7.96c1.39,1.65,2.76,3.49,4.15,5.52,1.39,2.04,2.78,4.19,4.21,6.45,1.41,2.28,2.8,4.62,4.15,7.03,1.35,2.41,2.67,4.79,3.99,7.13h18.02c-1.24-2.62-2.58-5.28-4.03-8-1.44-2.72-2.95-5.34-4.5-7.86ZM9.01,20.18c-2.52,0-4.57-2.05-4.57-4.57s2.05-4.57,4.57-4.57,4.57,2.05,4.57,4.57-2.05,4.57-4.57,4.57Zm27.1,24.27c-2.52,0-4.57-2.05-4.57-4.57s2.05-4.57,4.57-4.57,4.57,2.05,4.57,4.57-2.05,4.57-4.57,4.57Zm-24.77,20.56c-2.52,0-4.57-2.05-4.57-4.57s2.05-4.57,4.57-4.57,4.57,2.05,4.57,4.57-2.05,4.57-4.57,4.57ZM90.17,31.2c-2.63,1.51-6.96,2.28-13.02,2.28h-4.55V14.05c.82-.07,1.71-.14,2.64-.2,.93-.07,1.98-.11,3.15-.11,5.17,0,9.08,.75,11.73,2.22,2.66,1.48,3.98,3.98,3.98,7.49s-1.31,6.24-3.92,7.75Z"/></g></svg>