<?xml version="1.0" encoding="UTF-8" standalone="no"?>
<!--
  - This file is part of RootDB.
  -
  - This program is free software: you can redistribute it and/or modify
  - it under the terms of the GNU Affero General Public License as published
  - by the Free Software Foundation, either version 3 of the License, or
  - (at your option) any later version.
  -
  - This program is distributed in the hope that it will be useful,
  - but WITHOUT ANY WARRANTY; without even the implied warranty of
  - MERCHANTABILITY or FITNESS FOR A PARTICULAR PURPOSE.  See the
  - GNU Affero General Public License for more details.
  -
  - You should have received a copy of the GNU Affero General Public License
  - along with this program.  If not, see <https://www.gnu.org/licenses/>.
  -
  - AUTHORS
  - PORQUET Sébastien <sebastien.porquet@ijaz.fr>
  - ROBIN Brice <brice@robri.net>
  -->

<svg
   id="Calque_2"
   viewBox="0 0 633.37 633.37"
   version="1.1"
   sodipodi:docname="logo.svg"
   inkscape:version="1.2.1 (9c6d41e410, 2022-07-14)"
   xmlns:inkscape="http://www.inkscape.org/namespaces/inkscape"
   xmlns:sodipodi="http://sodipodi.sourceforge.net/DTD/sodipodi-0.dtd"
   xmlns="http://www.w3.org/2000/svg"
   xmlns:svg="http://www.w3.org/2000/svg">
  <sodipodi:namedview
     id="namedview33"
     pagecolor="#ffffff"
     bordercolor="#666666"
     borderopacity="1.0"
     inkscape:showpageshadow="2"
     inkscape:pageopacity="0.0"
     inkscape:pagecheckerboard="0"
     inkscape:deskcolor="#d1d1d1"
     showgrid="false"
     inkscape:zoom="2.2931262"
     inkscape:cx="211.7197"
     inkscape:cy="310.05707"
     inkscape:window-width="3840"
     inkscape:window-height="2118"
     inkscape:window-x="0"
     inkscape:window-y="42"
     inkscape:window-maximized="1"
     inkscape:current-layer="Calque_2" />
  <defs
     id="defs9">
    <style
       id="style2">.cls-1{fill:#fff;}.cls-2{fill:url(#Dégradé_sans_nom_37);}</style>
    <linearGradient
       id="Dégradé_sans_nom_37"
       x1="316.68"
       y1="626.48"
       x2="316.68"
       y2="32.18"
       gradientUnits="userSpaceOnUse">
      <stop
         offset="0"
         stop-color="#131944"
         id="stop4"
         style="stop-color:#2c5d85;stop-opacity:1;" />
      <stop
         offset="1"
         stop-color="#2c5d85"
         id="stop6" />
    </linearGradient>
  </defs>
  <rect
     class="cls-2"
     width="633.37"
     height="633.37"
     id="rect11"
     style="fill:url(#D%C3%A9grad%C3%A9_sans_nom_37)"
     x="0"
     y="0" />
  <path
     class="cls-1"
     d="m 167.54,424.79 c -1.47,-2.38 -2.95,-4.66 -4.46,-6.85 -1.5,-2.19 -2.94,-4.13 -4.3,-5.82 4.11,-1.7 7.26,-4.03 9.44,-7 2.19,-2.97 3.28,-6.83 3.28,-11.6 0,-7.63 -2.71,-13.26 -8.12,-16.88 -5.41,-3.62 -13.21,-5.43 -23.39,-5.43 -2.81,0 -5.99,0.13 -9.54,0.39 -3.56,0.26 -7,0.72 -10.32,1.37 v 66.84 h 15.26 v -24.76 h 7.54 c 1.31,1.57 2.62,3.31 3.93,5.24 1.31,1.93 2.64,3.96 3.98,6.12 1.34,2.15 2.65,4.37 3.93,6.66 1.28,2.28 2.54,4.53 3.79,6.75 h 17.07 c -1.18,-2.48 -2.45,-5.01 -3.82,-7.58 -1.37,-2.58 -2.79,-5.06 -4.25,-7.44 z m -15.51,-24.03 c -2.48,1.43 -6.59,2.15 -12.33,2.15 h -4.31 v -18.4 c 0.79,-0.06 1.61,-0.13 2.5,-0.2 0.88,-0.06 1.87,-0.1 2.99,-0.1 4.89,0 8.59,0.7 11.11,2.1 2.51,1.4 3.77,3.77 3.77,7.09 0,3.32 -1.24,5.9 -3.72,7.34 z"
     id="path13" />
  <path
     class="cls-1"
     d="m 238.34,379.42 c -3.07,-3 -6.66,-5.25 -10.77,-6.75 -4.11,-1.5 -8.48,-2.25 -13.11,-2.25 -4.63,0 -8.79,0.75 -12.87,2.25 -4.08,1.5 -7.67,3.75 -10.77,6.75 -3.1,3 -5.56,6.7 -7.39,11.11 -1.83,4.4 -2.74,9.51 -2.74,15.32 0,5.81 0.88,10.91 2.64,15.32 1.76,4.4 4.17,8.09 7.24,11.06 3.07,2.97 6.66,5.2 10.76,6.7 4.11,1.5 8.48,2.25 13.11,2.25 4.63,0 9.22,-0.75 13.36,-2.25 4.14,-1.5 7.71,-3.73 10.71,-6.7 3,-2.97 5.37,-6.66 7.09,-11.06 1.73,-4.4 2.59,-9.51 2.59,-15.32 0,-5.81 -0.88,-10.91 -2.64,-15.32 -1.76,-4.4 -4.18,-8.11 -7.24,-11.11 z m -7.1,35.43 c -0.82,2.68 -1.99,4.98 -3.52,6.9 -1.53,1.93 -3.43,3.41 -5.68,4.45 -2.25,1.05 -4.78,1.57 -7.58,1.57 -2.8,0 -5.42,-0.52 -7.63,-1.57 -2.22,-1.04 -4.1,-2.53 -5.63,-4.45 -1.53,-1.92 -2.71,-4.22 -3.52,-6.9 -0.81,-2.68 -1.22,-5.68 -1.22,-9 0,-3.32 0.41,-6.25 1.22,-8.95 0.82,-2.71 1.99,-5.02 3.52,-6.95 1.53,-1.92 3.41,-3.43 5.63,-4.5 2.22,-1.07 4.76,-1.61 7.63,-1.61 2.87,0 5.33,0.52 7.58,1.57 2.25,1.04 4.15,2.53 5.68,4.45 1.53,1.92 2.71,4.24 3.52,6.95 0.82,2.71 1.23,5.72 1.23,9.05 0,3.33 -0.41,6.33 -1.23,9 z"
     id="path15" />
  <path
     class="cls-1"
     d="m 315.65,379.42 c -3.06,-3 -6.65,-5.25 -10.76,-6.75 -4.12,-1.5 -8.48,-2.25 -13.12,-2.25 -4.64,0 -8.79,0.75 -12.87,2.25 -4.08,1.5 -7.67,3.75 -10.76,6.75 -3.1,3 -5.56,6.7 -7.39,11.11 -1.83,4.4 -2.74,9.51 -2.74,15.32 0,5.81 0.88,10.91 2.64,15.32 1.76,4.4 4.17,8.09 7.24,11.06 3.07,2.97 6.66,5.2 10.77,6.7 4.11,1.5 8.48,2.25 13.11,2.25 4.63,0 9.22,-0.75 13.36,-2.25 4.14,-1.5 7.71,-3.73 10.72,-6.7 3,-2.97 5.36,-6.66 7.09,-11.06 1.72,-4.4 2.59,-9.51 2.59,-15.32 0,-5.81 -0.88,-10.91 -2.64,-15.32 -1.77,-4.4 -4.18,-8.11 -7.25,-11.11 z m -7.09,35.43 c -0.81,2.68 -1.99,4.98 -3.52,6.9 -1.53,1.93 -3.42,3.41 -5.67,4.45 -2.25,1.05 -4.79,1.57 -7.59,1.57 -2.8,0 -5.41,-0.52 -7.63,-1.57 -2.22,-1.04 -4.1,-2.53 -5.63,-4.45 -1.54,-1.92 -2.71,-4.22 -3.53,-6.9 -0.82,-2.68 -1.22,-5.68 -1.22,-9 0,-3.32 0.41,-6.25 1.22,-8.95 0.82,-2.71 1.99,-5.02 3.53,-6.95 1.53,-1.92 3.41,-3.43 5.63,-4.5 2.22,-1.07 4.76,-1.61 7.63,-1.61 2.87,0 5.34,0.52 7.59,1.57 2.25,1.04 4.14,2.53 5.67,4.45 1.53,1.92 2.71,4.24 3.52,6.95 0.82,2.71 1.23,5.72 1.23,9.05 0,3.33 -0.41,6.33 -1.23,9 z"
     id="path17" />
  <polygon
     class="cls-1"
     points="386.32,371.99 330.14,371.99 330.14,385 350.59,385 350.59,439.81 365.86,439.81 365.86,385 386.32,385 "
     id="polygon19" />
  <path
     class="cls-1"
     d="m 440.48,380.01 c -3.3,-2.87 -7.22,-5.02 -11.79,-6.46 -4.57,-1.43 -9.59,-2.15 -15.07,-2.15 -2.74,0 -5.61,0.15 -8.61,0.44 -3,0.29 -5.65,0.77 -7.93,1.42 v 65.38 c 2.28,0.59 4.92,1.03 7.93,1.32 3,0.29 5.87,0.44 8.61,0.44 5.48,0 10.5,-0.72 15.07,-2.15 4.57,-1.43 8.5,-3.59 11.79,-6.46 3.29,-2.87 5.86,-6.46 7.68,-10.77 1.82,-4.3 2.74,-9.36 2.74,-15.17 0,-5.81 -0.92,-10.77 -2.74,-15.07 -1.83,-4.3 -4.39,-7.89 -7.68,-10.76 z m 1.52,37.83 c -1.24,3.56 -3.1,6.57 -5.58,9.05 -2.48,2.48 -5.55,4.39 -9.2,5.72 -3.66,1.34 -7.93,2.01 -12.82,2.01 -3.52,0 -6.08,-0.1 -7.68,-0.29 -1.6,-0.2 -2.59,-0.33 -2.99,-0.39 v -56.08 c 0.39,-0.06 1.39,-0.19 2.99,-0.39 1.6,-0.2 4.16,-0.29 7.68,-0.29 4.89,0 9.17,0.67 12.82,2.01 3.65,1.34 6.72,3.25 9.2,5.72 2.48,2.48 4.34,5.48 5.58,9 1.24,3.52 1.86,7.5 1.86,11.94 0,4.44 -0.62,8.43 -1.86,11.99 z"
     id="path21" />
  <path
     class="cls-1"
     d="m 509.33,408.89 c -1.24,-1.34 -2.67,-2.43 -4.3,-3.28 -1.63,-0.85 -3.43,-1.5 -5.38,-1.96 3.13,-0.98 5.63,-2.75 7.49,-5.33 1.86,-2.57 2.79,-5.68 2.79,-9.33 0,-3.32 -0.74,-6.11 -2.2,-8.36 -1.46,-2.25 -3.44,-4.06 -5.92,-5.42 -2.48,-1.37 -5.37,-2.34 -8.66,-2.93 -3.29,-0.59 -6.77,-0.88 -10.42,-0.88 -1.24,0 -2.59,0.03 -4.06,0.1 -1.47,0.06 -2.97,0.18 -4.5,0.34 -1.54,0.16 -3.02,0.36 -4.46,0.59 -1.43,0.23 -2.74,0.51 -3.91,0.83 v 65.28 c 0.97,0.26 2.15,0.51 3.52,0.73 1.37,0.23 2.82,0.42 4.35,0.59 1.53,0.16 3.03,0.29 4.5,0.39 1.47,0.1 2.76,0.15 3.87,0.15 10.63,0 18.5,-1.68 23.59,-5.05 5.09,-3.36 7.63,-8.25 7.63,-14.65 0,-2.68 -0.34,-4.98 -1.03,-6.91 -0.68,-1.93 -1.65,-3.56 -2.89,-4.9 z m -36.9,-31.13 c 1.11,-0.19 2.5,-0.36 4.16,-0.49 1.66,-0.13 3.7,-0.19 6.12,-0.19 3,0 5.74,0.21 8.22,0.63 2.48,0.42 4.61,1.12 6.41,2.1 1.79,0.97 3.18,2.23 4.16,3.75 0.98,1.53 1.47,3.4 1.47,5.6 0,2.47 -0.46,4.5 -1.37,6.1 -0.92,1.59 -2.17,2.86 -3.77,3.8 -1.6,0.94 -3.47,1.59 -5.63,1.95 -2.15,0.36 -4.44,0.54 -6.85,0.54 h -12.92 v -23.78 z m 31.81,49.89 c -1.31,1.83 -3.04,3.28 -5.19,4.32 -2.15,1.05 -4.65,1.77 -7.49,2.16 -2.84,0.39 -5.76,0.59 -8.76,0.59 -2.02,0 -4.01,-0.08 -5.97,-0.24 -1.96,-0.16 -3.43,-0.31 -4.4,-0.44 v -26.81 h 14.09 c 3,0 5.73,0.2 8.17,0.59 2.45,0.39 4.52,1.1 6.21,2.11 1.7,1.01 3,2.39 3.92,4.12 0.91,1.73 1.37,3.91 1.37,6.53 0,2.88 -0.66,5.24 -1.96,7.07 z"
     id="path23" />
  <path
     class="cls-1"
     d="m 400.65557,240.86632 h 48.78576 v -6.58615 H 379.7887 c -5.17255,0 -9.38126,-4.19266 -9.38126,-9.38126 v -82.43942 c 0,-3.11639 1.75095,-5.79904 4.22478,-7.69456 3.16457,-2.42563 5.22073,-6.23276 5.22073,-10.52179 0,-7.37329 -6.00786,-13.38115 -13.38115,-13.38115 -7.37328,0 -13.36508,6.00786 -13.36508,13.38115 0,4.85126 2.58627,9.09211 6.45765,11.43743 2.82723,1.70275 4.25691,5.04403 4.25691,8.3371 v 80.88124 c 0,5.17255 -4.19265,9.38126 -9.38126,9.38126 h -11.67839 c -5.17254,0 -9.38125,-4.19266 -9.38125,-9.38126 v -40.85025 c 0,-3.26095 1.38148,-6.53796 4.14446,-8.27285 3.77499,-2.36138 6.297,-6.53797 6.297,-11.30892 0,-7.37328 -6.00785,-13.38115 -13.38113,-13.38115 -7.37329,0 -13.36509,6.00787 -13.36509,13.38115 0,4.36936 2.12042,8.22467 5.38137,10.6503 2.53808,1.89553 4.33723,4.59425 4.33723,7.77488 v 42.0229 c 0,5.17254 -4.19265,9.38127 -9.38126,9.38127 h -4.81914 c -5.17254,0 -9.38126,-4.19266 -9.38126,-9.38127 v -78.53592 c 0,-3.22882 1.8634,-5.97573 4.49786,-7.8552 3.37341,-2.40956 5.57415,-6.3452 5.57415,-10.81093 0,-7.37329 -6.00787,-13.38115 -13.38115,-13.38115 -7.37328,0 -13.38115,6.00786 -13.38115,13.38115 0,4.46573 2.20074,8.40137 5.57414,10.81093 2.63446,1.87947 4.49786,4.62638 4.49786,7.8552 v 78.53592 c 0,5.17254 -4.19265,9.38127 -9.38126,9.38127 h -13.05987 c -5.17254,0 -9.38125,-4.19266 -9.38125,-9.38127 v -60.81754 c 0,-3.16457 1.79915,-5.87936 4.33722,-7.77489 3.26096,-2.42562 5.38138,-6.28094 5.38138,-10.65029 0,-7.37329 -6.00787,-13.36509 -13.38115,-13.36509 -7.37328,0 -13.38115,5.9918 -13.38115,13.36509 0,4.77094 2.52202,8.9636 6.29701,11.32497 2.76298,1.7349 4.14447,5.01191 4.14447,8.27286 v 59.62883 c 0,5.17255 -4.19266,9.38126 -9.38127,9.38126 h -60.1268 v 6.58615 h 65.57243 l -5.57413,6.40947 -50.21544,13.09199 1.67063,6.37733 49.38012,-12.86711 c 1.83127,-0.48191 3.46978,-1.49393 4.72276,-2.92361 l 2.58627,-2.97179 c 3.03606,-3.50192 8.19254,-4.25692 12.1121,-1.76702 l 2.68266,1.70276 c 4.77095,3.03605 5.79904,9.57402 2.18468,13.91125 l -12.09604,14.53773 c -1.75095,1.07628 -3.35734,2.07224 -5.09222,3.14852 l -40.19164,9.38125 4.14446,5.67052 27.56548,-6.3452 c 5.52596,-1.26905 10.90732,2.6184 11.43743,8.25679 0.3534,3.85531 -1.68669,7.53393 -5.15647,9.26881 l -15.357,7.64637 2.93968,5.89542 6.58615,-3.27701 c 5.89542,-2.93968 12.89924,0.96382 13.50966,7.51786 l 0.78712,8.41743 6.5701,-0.61043 -1.70277,-18.18422 c -0.3534,-3.85532 1.6867,-7.53392 5.15648,-9.26881 l 16.44933,-8.19254 c 5.68659,-2.82723 12.48158,0.69074 13.44541,6.97168 l 6.297,41.1394 6.50584,-0.99595 -8.562,-55.91809 5.44563,-2.71478 17.38103,-38.21578 6.03999,16.33688 c 1.17266,3.14851 0.54617,6.6986 -1.60638,9.26881 l -5.33318,6.36127 c -1.41361,1.68669 -2.18468,3.82318 -2.18468,6.02392 v 58.95414 h 6.58617 v -56.56064 c 0,-2.20074 0.77105,-4.33722 2.18467,-6.02392 l 4.2569,-5.07616 c 1.42969,-1.70277 3.99989,-1.84733 5.60627,-0.30521 l 21.22028,20.27252 c 2.95574,2.82722 3.74287,7.26083 1.92765,10.92337 l -15.14815,30.6658 5.91147,2.92362 11.63019,-23.53347 c 2.7951,-5.67052 10.31296,-7.00382 14.89114,-2.63446 l 8.27286,7.90338 4.52999,-4.78701 -14.00763,-13.26869 c -2.98786,-2.82723 -3.77499,-7.27691 -1.95979,-10.95552 l 4.32117,-8.73871 c 2.10436,-4.27297 7.08414,-6.28094 11.56593,-4.67456 l 29.05942,10.40934 2.2168,-6.20063 -35.59738,-12.75465 c -1.95978,-0.70681 -3.63041,-2.04011 -4.75489,-3.80713 l -9.55795,-15.05177 c -1.63851,-2.58628 0.89957,-5.78298 3.79106,-4.77096 l 56.54457,19.77454 2.18467,-6.21669 -42.60119,-14.9072 c -2.55414,-0.89958 -1.9116,-4.67457 0.78713,-4.67457 z M 261.15753,152.46723 c -3.74286,0 -6.77892,-3.05212 -6.77892,-6.77892 0,-3.7268 3.05212,-6.77893 6.77892,-6.77893 3.7268,0 6.77893,3.03606 6.77893,6.77893 0,3.74286 -3.05213,6.77892 -6.77893,6.77892 z m 31.96696,-24.77038 c 0,-3.74287 3.05213,-6.77892 6.77893,-6.77892 3.7268,0 6.77892,3.05212 6.77892,6.77892 0,3.72681 -3.05212,6.77893 -6.77892,6.77893 -3.7268,0 -6.77893,-3.03606 -6.77893,-6.77893 z m -20.28858,113.16947 h 18.40912 l -6.37733,7.64637 -12.04785,-7.64637 z m 20.85081,45.31599 -22.16804,11.03583 c -2.42564,1.20479 -5.30105,-0.4016 -5.54201,-3.08425 l -0.69074,-7.4536 c -0.2249,-2.4899 0.5301,-4.94766 2.13648,-6.87531 l 16.65817,-20.0155 c 1.23691,-1.49393 3.38946,-1.83127 5.02796,-0.78712 l 6.29701,3.99988 c 0.9317,0.59437 1.57425,1.57425 1.7349,2.66659 l 1.6385,10.69849 c 0.61043,4.03203 -1.44574,7.99978 -5.09223,9.81499 z m 25.23623,-32.06335 -11.45348,25.18804 -1.46181,0.72287 -2.42563,-15.8389 c -0.41766,-2.68266 -1.95978,-5.04403 -4.24084,-6.48978 l -5.15648,-3.27702 c -1.95979,-1.25297 -2.37745,-3.93562 -0.89958,-5.71871 l 3.72681,-4.4818 c 1.78307,-2.13648 4.41754,-3.37339 7.21264,-3.37339 h 6.16849 c 6.81107,0 11.35711,7.052 8.52988,13.25262 z m 4.72276,-89.65207 c 0,-3.74287 3.03606,-6.77893 6.77893,-6.77893 3.74287,0 6.77892,3.05213 6.77892,6.77893 0,3.72681 -3.05212,6.77892 -6.77892,6.77892 -3.7268,0 -6.77893,-3.03605 -6.77893,-6.77892 z m 36.03111,-40.22375 c 0,-3.74287 3.03606,-6.77893 6.77892,-6.77893 3.74287,0 6.77893,3.05212 6.77893,6.77893 0,3.7268 -3.05213,6.77892 -6.77893,6.77892 -3.72679,0 -6.77892,-3.03605 -6.77892,-6.77892 z m -19.34081,131.19305 -0.70681,-1.89553 c -2.31319,-6.13636 2.2168,-12.69039 8.77083,-12.69039 h 3.38946 c 3.27702,0 5.04404,3.82318 2.95574,6.32913 l -7.85519,9.3652 c -1.89553,2.26499 -5.50989,1.63851 -6.55403,-1.10841 z m 42.10321,12.44945 c 1.75096,2.76297 1.94372,6.23275 0.49798,9.17242 l -2.69872,5.4617 c -2.7951,5.65446 -10.26476,7.00382 -14.85901,2.65053 l -12.48158,-11.82296 c -3.59828,-3.40553 -3.91956,-9.02786 -0.73893,-12.83497 l 10.18445,-12.14424 c 2.16861,-2.58626 6.24882,-2.32925 8.04796,0.53011 z"
     id="path25"
     style="stroke-width:1.60637" />
</svg>
